<?xml version="1.0" encoding="utf-8"?>
<!-- Generator: Adobe Illustrator 25.1.0, SVG Export Plug-In . SVG Version: 6.00 Build 0)  -->
<svg version="1.1" id="Layer_1" xmlns="http://www.w3.org/2000/svg" xmlns:xlink="http://www.w3.org/1999/xlink" x="0px" y="0px"
	 viewBox="0 0 133 133" style="enable-background:new 0 0 133 133;" xml:space="preserve">
<style type="text/css">
	.st0{fill:#C80C0F;}
</style>
<g>
	<path class="st0" d="M30.8,81.3c-5.1,0-8.6-2.6-8.6-7.5v-0.2H25v0.1c0,3.2,2.3,5.1,5.8,5.1c1.9,0,5.4-0.8,5.4-3.8
		c0-5.8-13.3-1.7-13.3-10c0-4.2,3.9-6.1,7.8-6.1c4.6,0,7.6,2.6,7.6,6.9V66h-2.8v-0.2c0-2.7-1.9-4.4-5.1-4.4c-2.2,0-4.7,0.9-4.7,3.4
		c0,5.4,13.3,1.6,13.3,10C39.1,79.3,34.9,81.3,30.8,81.3 M55,69.7c-0.4,0.4-1.5,0.6-2.1,0.6l-2,0.2c-3.7,0.4-7.2,1.2-7.2,4.4
		c0,2.7,2.3,3.8,4.4,3.8c2.1,0,4-0.7,5.3-2.1c1.1-1.1,1.6-2.6,1.6-4.2V69.7L55,69.7z M55.5,80.7c-0.3-1.1-0.3-3.4-0.3-3.4
		c-1.1,2.3-3.5,4-7.3,4c-4.4,0-7-2.4-7-6.2c0-5.6,5.1-6.2,10-6.7l1.1-0.1c2-0.2,3.1-0.5,3.1-2.7c0-2.8-1.6-4.1-5.1-4.1
		c-2.9,0-5.3,1.2-5.3,4.4v0.2h-2.8v-0.2c0-4.9,3.9-6.9,8.4-6.9c4.9,0,7.7,1.9,7.7,6.5V77c0,1,0.2,3.1,0.4,3.7H55.5L55.5,80.7z
		 M76.2,59.6h0.2l-7.2,21.1h-3.1l-7.5-21.1h3.3l5.8,17.9l5.7-17.9H76.2z M81.2,54.1c0-1.1-0.9-2-2-2c-1,0-2,0.9-2,1.9
		c0,1.1,0.9,2,2,2S81.2,55.1,81.2,54.1L81.2,54.1L81.2,54.1z M77.8,59.6h2.9v21.1h-2.9C77.8,80.7,77.8,59.6,77.8,59.6z M83.6,51.7
		h2.9v29.1h-2.9V51.7z M89.3,51.7h2.9v29.1h-2.9V51.7z M102.5,81.3c-5.2,0-8.6-2.6-8.6-7.5v-0.2h2.8v0.1c0,3.2,2.4,5.1,5.8,5.1
		c1.9,0,5.5-0.8,5.5-3.8c0-5.8-13.4-1.7-13.4-10c0-4.2,3.9-6.1,7.8-6.1c4.6,0,7.7,2.6,7.7,6.9V66h-2.8v-0.2c0-2.7-1.9-4.4-5.1-4.4
		c-2.2,0-4.8,0.9-4.8,3.4c0,5.4,13.4,1.6,13.4,10C110.8,79.3,106.6,81.3,102.5,81.3"/>
</g>
</svg>
